# xmcd CD database file
#
# Track frame offsets:
#	150
#	23212
#	47400
#	70482
#
# Disc length: 1258 seconds
#
# Revision: 0
# Processed by: cddbd v1.5PL3 Copyright (c) Steve Scherf et al.
# Submitted via: CDex 1.50
#
DISCID=2e04e804
DTITLE=Angelique - 蕾 tubomi
DYEAR=1900
DGENRE=
TTITLE0=蕾 tubomi
TTITLE1=F <Tomodachi De Iyou>
TTITLE2=蕾 tubomi (instrumental)
TTITLE3=F <Tomodachi De Iyou> (instrumental)
EXTD=
EXTT0=
EXTT1=
EXTT2=
EXTT3=
PLAYORDER=
